# xmcd
# 
# Track frame offsets:
#     150
#     17490
#     37512
#     64676
#     84192
#     106248
#     129883
#     151865
#     170833
#     189559
#     215003
# 
# Disc length: 3200
# 
# Revision: 2
# Processed by: cddbd v1.5.2PL0 Copyright (c) Steve Scherf et al.
# Submitted via: fre:ac v1.0.31
# 
DISCID=7d0c7e0b
DTITLE=Jeff Golub - Grand Central
DYEAR=2007
DGENRE=Jazz
TTITLE0=Hello Betty
TTITLE1=Lulu's Back
TTITLE2=If You Want Me To Stay
TTITLE3=Mojito
TTITLE4=Something
TTITLE5=Shockwave
TTITLE6=Slinky
TTITLE7=Grand Central
TTITLE8=Ain't No Woman (Like The One I Got)
TTITLE9=The Way I Feel Tonight
TTITLE10=Stuffin' It
EXTD=YEAR: 2007
EXTT0=
EXTT1=
EXTT2=
EXTT3=
EXTT4=
EXTT5=
EXTT6=
EXTT7=
EXTT8=
EXTT9=
EXTT10=
PLAYORDER=
